<?xml version="1.0" encoding="utf-8"?>
<!-- Generator: Adobe Illustrator 16.0.0, SVG Export Plug-In . SVG Version: 6.00 Build 0)  -->
<!DOCTYPE svg PUBLIC "-//W3C//DTD SVG 1.1//EN" "http://www.w3.org/Graphics/SVG/1.1/DTD/svg11.dtd">
<svg version="1.1" id="Layer_1" xmlns="http://www.w3.org/2000/svg" xmlns:xlink="http://www.w3.org/1999/xlink" x="0px" y="0px"
	 width="67px" height="101px" viewBox="0 0 67 101" enable-background="new 0 0 67 101" xml:space="preserve">
<polyline fill="#C99727" points="1.422,38.664 67,76.271 67,101.13 -0.131,63.369 0.869,38.788 "/>
<polygon opacity="0.18" fill="#020202" points="-0.131,63.357 31.179,55.729 20.594,49.632 "/>
<polygon fill="#FFFFFF" points="67,25.594 67,0 -0.131,38.496 -0.131,63.357 "/>
<g>
	<path fill="#4C4C4C" d="M12.804,37.205l1.36-0.764l3.704,5.119c0.185,0.26,0.351,0.503,0.497,0.729
		c0.146,0.227,0.281,0.45,0.406,0.671l0.1,0.179c-0.063-0.121-0.147-0.294-0.257-0.519c-0.373-0.754-0.588-1.207-0.646-1.359
		l-2.26-5.687l1.215-0.682l3.828,5.042c0.148,0.196,0.309,0.426,0.479,0.688s0.348,0.561,0.534,0.893
		c-0.034-0.06-0.079-0.151-0.137-0.276c-0.397-0.796-0.652-1.33-0.766-1.603l-2.38-5.618l1.347-0.756l3.746,10.042l-1.194,0.67
		l-3.786-4.921c-0.147-0.192-0.309-0.423-0.483-0.695s-0.353-0.569-0.534-0.893c0.256,0.517,0.46,0.932,0.611,1.245
		c0.149,0.313,0.247,0.524,0.292,0.633l2.15,5.613l-1.188,0.667L12.804,37.205z"/>
	<path fill="#4C4C4C" d="M26.556,41.632l-5.183-9.235l3.718-2.087l0.749,1.335l-2.293,1.287l1.357,2.421l1.652-0.927l0.75,1.335
		l-1.652,0.927l1.548,2.759l2.294-1.287l0.777,1.386L26.556,41.632z"/>
	<path fill="#4C4C4C" d="M32.091,38.525l-5.183-9.235l1.885-1.058c0.758-0.426,1.461-0.544,2.109-0.356s1.188,0.664,1.617,1.431
		c0.259,0.46,0.404,0.909,0.438,1.347c0.033,0.438-0.049,0.877-0.244,1.317c0.5,0.004,0.944,0.138,1.329,0.4
		c0.386,0.263,0.734,0.67,1.045,1.224c0.473,0.843,0.637,1.57,0.492,2.18c-0.145,0.611-0.606,1.134-1.386,1.571L32.091,38.525z
		 M30.479,32.343l0.574-0.323c0.26-0.146,0.399-0.37,0.421-0.673c0.02-0.302-0.082-0.654-0.307-1.054
		c-0.247-0.438-0.498-0.715-0.754-0.828c-0.258-0.113-0.552-0.077-0.884,0.109l-0.46,0.258L30.479,32.343z M32.754,36.398
		l0.613-0.344c0.307-0.172,0.472-0.405,0.495-0.698s-0.094-0.667-0.35-1.122c-0.282-0.502-0.563-0.817-0.844-0.942
		c-0.279-0.125-0.607-0.083-0.981,0.127l-0.461,0.258L32.754,36.398z"/>
	<path fill="#4C4C4C" d="M36.604,32.911l1.246-0.969c0.288,0.454,0.572,0.75,0.851,0.888c0.279,0.138,0.567,0.123,0.865-0.045
		c0.26-0.146,0.424-0.345,0.494-0.601c0.07-0.254,0.03-0.516-0.121-0.785c-0.27-0.481-1.001-0.888-2.195-1.22
		c-0.094-0.025-0.164-0.045-0.21-0.058c-1.171-0.329-1.975-0.635-2.413-0.917c-0.439-0.283-0.785-0.65-1.038-1.102
		c-0.366-0.652-0.46-1.319-0.28-2.005c0.178-0.685,0.575-1.201,1.192-1.548c0.601-0.337,1.208-0.407,1.822-0.211
		c0.613,0.196,1.146,0.629,1.595,1.301l-1.281,0.979c-0.258-0.399-0.497-0.653-0.719-0.764c-0.222-0.112-0.458-0.097-0.71,0.045
		c-0.229,0.129-0.37,0.31-0.422,0.543c-0.05,0.233-0.003,0.479,0.144,0.739c0.301,0.536,1.14,0.986,2.52,1.349
		c0.053,0.014,0.096,0.027,0.13,0.036c1.014,0.271,1.737,0.551,2.168,0.841c0.432,0.29,0.788,0.686,1.07,1.188
		c0.378,0.673,0.479,1.343,0.304,2.009c-0.174,0.667-0.581,1.179-1.22,1.537c-0.707,0.397-1.395,0.486-2.063,0.268
		C37.664,34.192,37.088,33.692,36.604,32.911z"/>
	<path fill="#4C4C4C" d="M44.203,31.729l-5.183-9.235l1.45-0.814l5.183,9.236L44.203,31.729z"/>
	<path fill="#4C4C4C" d="M42.559,22.263l-0.749-1.335l4.381-2.459l0.749,1.335l-1.481,0.832l4.434,7.9l-1.425,0.8l-4.434-7.901
		L42.559,22.263z"/>
	<path fill="#4C4C4C" d="M52.751,26.932l-5.183-9.235l3.718-2.087l0.749,1.335l-2.293,1.287l1.357,2.421l1.652-0.927l0.75,1.335
		l-1.652,0.927l1.548,2.759l2.294-1.287l0.777,1.386L52.751,26.932z"/>
</g>
<g>
	<path fill="#FFFFFF" d="M21.236,61.611c0.307-0.529,0.692-0.861,1.154-0.994s0.948-0.053,1.456,0.242
		c0.48,0.279,0.77,0.652,0.872,1.125c0.102,0.47-0.002,0.973-0.311,1.504l-1.998,3.443c-0.341,0.588-0.744,0.961-1.206,1.119
		c-0.462,0.158-0.949,0.09-1.46-0.207c-0.517-0.301-0.819-0.688-0.907-1.162c-0.086-0.475,0.047-1.018,0.401-1.627L21.236,61.611z
		 M21.222,66.527l2.175-3.749c0.135-0.232,0.191-0.433,0.168-0.601s-0.122-0.304-0.298-0.406c-0.177-0.102-0.343-0.121-0.5-0.058
		c-0.157,0.064-0.303,0.212-0.438,0.444l-2.175,3.749c-0.135,0.232-0.191,0.434-0.17,0.604s0.12,0.306,0.297,0.408
		s0.344,0.121,0.502,0.056C20.94,66.908,21.087,66.76,21.222,66.527z"/>
	<path fill="#FFFFFF" d="M22.892,69.478l3.898-6.718l2.699,1.566l-0.563,0.971l-1.663-0.965l-1.022,1.762l1.199,0.695l-0.563,0.971
		l-1.199-0.695l-1.75,3.015L22.892,69.478z"/>
	<path fill="#FFFFFF" d="M30.454,66.184l0.563-0.971l3.187,1.85l-0.563,0.971l-1.078-0.625l-3.334,5.746l-1.037-0.602l3.334-5.746
		L30.454,66.184z"/>
	<path fill="#FFFFFF" d="M35.205,67.644l1.027,0.597l-1.592,2.74l1.036,0.601l1.591-2.741l1.037,0.602l-3.898,6.718l-1.037-0.602
		l1.744-3.005l-1.035-0.602l-1.744,3.006l-1.027-0.596L35.205,67.644z"/>
	<path fill="#FFFFFF" d="M35.998,77.082l3.897-6.717l2.704,1.569l-0.563,0.971l-1.669-0.968l-1.022,1.761l1.203,0.697l-0.563,0.972
		l-1.202-0.697l-1.164,2.006l1.668,0.969l-0.585,1.008L35.998,77.082z"/>
	<path fill="#FFFFFF" d="M41.334,80.18l5.314-9.16l2.009,1.165c0.777,0.451,1.233,0.989,1.37,1.616
		c0.136,0.627-0.044,1.369-0.541,2.226l-2.375,4.093c-0.518,0.891-1.071,1.438-1.661,1.637s-1.271,0.074-2.044-0.375L41.334,80.18z
		 M43.518,79.643l0.716,0.416c0.248,0.145,0.479,0.174,0.69,0.087c0.211-0.087,0.412-0.294,0.604-0.624l2.559-4.408
		c0.218-0.377,0.286-0.705,0.206-0.985s-0.314-0.534-0.702-0.76l-0.323-0.188L43.518,79.643z"/>
	<path fill="#FFFFFF" d="M46.977,83.453l6.822-8.285l1.845,1.07L51.829,86.27l-1.45-0.842l0.865-2.148l-1.426-0.827l-1.455,1.807
		L46.977,83.453z M50.749,81.257l1.077,0.626l1.739-4.106l-0.089-0.052L50.749,81.257z"/>
	<path fill="#FFFFFF" d="M57.781,77.479l1.432,0.832l-1.205,4.194l0.088,0.052l2.999-3.154l1.438,0.834l-4.756,4.404l-2.206,3.801
		l-1.413-0.82l2.105-3.63L57.781,77.479z"/>
</g>
</svg>
