<?xml version="1.0" encoding="utf-8"?>
<!-- Generator: Adobe Illustrator 17.0.0, SVG Export Plug-In . SVG Version: 6.00 Build 0)  -->
<!DOCTYPE svg PUBLIC "-//W3C//DTD SVG 1.1//EN" "http://www.w3.org/Graphics/SVG/1.1/DTD/svg11.dtd">
<svg version="1.1" id="Layer_1" xmlns="http://www.w3.org/2000/svg" xmlns:xlink="http://www.w3.org/1999/xlink" x="0px" y="0px"
	 width="198.795px" height="201.205px" viewBox="0 0 198.795 201.205" enable-background="new 0 0 198.795 201.205"
	 xml:space="preserve">
<g>
	<path fill="#FFFFFF" d="M136.869,112.629l-5.486,37.526l36.442-5.653l-14.123-14.543c4.924-8.83,7.761-18.983,7.761-29.815
		c0-33.89-27.473-61.368-61.368-61.368v5.114c31.018,0,56.254,25.235,56.254,56.254c0,9.366-2.322,18.189-6.39,25.964
		L136.869,112.629z M137.445,144.036l2.984-20.401l16.83,17.329L137.445,144.036z"/>
	<path fill="#FFFFFF" d="M43.841,100.143c0-13.469,4.809-25.805,12.735-35.498l15.492,15.946l5.483-37.523l-36.442,5.651
		l11.866,12.215c-8.865,10.638-14.248,24.281-14.248,39.209c0,33.895,27.477,61.368,61.368,61.368v-5.114
		C69.076,156.397,43.841,131.162,43.841,100.143z M71.488,49.183l-2.982,20.403l-16.83-17.332L71.488,49.183z"/>
</g>
</svg>
