<?xml version="1.0" encoding="utf-8"?>
<!-- Generator: Adobe Illustrator 17.0.0, SVG Export Plug-In . SVG Version: 6.00 Build 0)  -->
<!DOCTYPE svg PUBLIC "-//W3C//DTD SVG 1.1//EN" "http://www.w3.org/Graphics/SVG/1.1/DTD/svg11.dtd">
<svg version="1.1" id="Layer_1" xmlns="http://www.w3.org/2000/svg" xmlns:xlink="http://www.w3.org/1999/xlink" x="0px" y="0px"
	 width="198.795px" height="201.205px" viewBox="0 0 198.795 201.205" enable-background="new 0 0 198.795 201.205"
	 xml:space="preserve">
<g>
	
		<rect x="56.546" y="84.45" fill="none" stroke="#000000" stroke-width="3" stroke-miterlimit="10" width="18.673" height="56.185"/>
	<path fill="none" stroke="#000000" stroke-width="3" stroke-miterlimit="10" d="M66.005,57.365c-6.389,0-10.564,4.197-10.564,9.707
		c0,5.395,4.053,9.711,10.319,9.711h0.123c6.51,0,10.564-4.318,10.564-9.711C76.325,61.56,72.393,57.365,66.005,57.365z"/>
	<path fill="none" stroke="#000000" stroke-width="3" stroke-miterlimit="10" d="M121.059,83.129c-9.915,0-14.35,5.454-16.83,9.28
		V84.45H85.553c0.246,5.272,0,56.185,0,56.185h18.677v-31.378c0-1.678,0.122-3.353,0.615-4.554c1.347-3.355,4.422-6.83,9.582-6.83
		c6.756,0,9.459,5.152,9.459,12.702v30.059h18.673v-32.218C142.558,91.162,133.347,83.129,121.059,83.129z"/>
</g>
</svg>
