<?xml version="1.0" encoding="utf-8"?>
<!-- Generator: Adobe Illustrator 17.0.0, SVG Export Plug-In . SVG Version: 6.00 Build 0)  -->
<!DOCTYPE svg PUBLIC "-//W3C//DTD SVG 1.1//EN" "http://www.w3.org/Graphics/SVG/1.1/DTD/svg11.dtd">
<svg version="1.1"
	 id="svg2" sodipodi:docname="Twitter_bird_logo_2012.svg" inkscape:version="0.48.4 r9939" xmlns:svg="http://www.w3.org/2000/svg" xmlns:dc="http://purl.org/dc/elements/1.1/" xmlns:rdf="http://www.w3.org/1999/02/22-rdf-syntax-ns#" xmlns:cc="http://creativecommons.org/ns#" xmlns:inkscape="http://www.inkscape.org/namespaces/inkscape" xmlns:sodipodi="http://sodipodi.sourceforge.net/DTD/sodipodi-0.dtd"
	 xmlns="http://www.w3.org/2000/svg" xmlns:xlink="http://www.w3.org/1999/xlink" x="0px" y="0px" width="171.505px"
	 height="139.378px" viewBox="0 0 171.505 139.378" enable-background="new 0 0 171.505 139.378" xml:space="preserve">
<sodipodi:namedview  id="base" inkscape:current-layer="layer1" fit-margin-right="0" fit-margin-bottom="0" inkscape:window-height="962" inkscape:window-y="-8" inkscape:window-x="-8" inkscape:pageshadow="2" inkscape:window-maximized="1" inkscape:window-width="1280" inkscape:document-units="px" inkscape:pageopacity="0.0" fit-margin-left="0" fit-margin-top="0" showgrid="false" inkscape:cy="50.181142" inkscape:cx="101.29413" inkscape:zoom="3.7200571" borderopacity="1.0" bordercolor="#666666" pagecolor="#ffffff">
	</sodipodi:namedview>
<g id="layer1" transform="translate(-282.32053,-396.30734)" inkscape:groupmode="layer" inkscape:label="Layer 1">
	<path id="path5_1_" inkscape:connector-curvature="0" fill="none" stroke="#000000" stroke-width="4" stroke-miterlimit="10" d="
		M418.016,429.688c5.535-3.318,9.787-8.572,11.788-14.833c-5.181,3.073-10.919,5.304-17.026,6.506
		c-4.89-5.211-11.858-8.466-19.57-8.466c-14.806,0-26.812,12.004-26.812,26.81c0,2.101,0.237,4.148,0.695,6.11
		c-22.283-1.118-42.038-11.792-55.262-28.013c-2.308,3.96-3.63,8.565-3.63,13.479c0,9.302,4.733,17.508,11.927,22.316
		c-4.395-0.139-8.529-1.345-12.144-3.353c-0.003,0.112-0.003,0.224-0.003,0.337c0,12.99,9.242,23.826,21.507,26.29
		c-2.25,0.613-4.618,0.94-7.063,0.94c-1.728,0-3.407-0.169-5.044-0.481c3.412,10.651,13.313,18.403,25.046,18.618
		c-9.176,7.192-20.736,11.478-33.298,11.478c-2.164,0-4.298-0.127-6.396-0.375c11.865,7.608,25.958,12.046,41.099,12.046
		c49.315,0,76.284-40.854,76.284-76.285c0-1.162-0.026-2.318-0.078-3.469c5.238-3.779,9.783-8.501,13.377-13.878L418.016,429.688z"
		/>
</g>
</svg>
