<?xml version="1.0" encoding="utf-8"?>
<!-- Generator: Adobe Illustrator 17.0.0, SVG Export Plug-In . SVG Version: 6.00 Build 0)  -->
<!DOCTYPE svg PUBLIC "-//W3C//DTD SVG 1.1//EN" "http://www.w3.org/Graphics/SVG/1.1/DTD/svg11.dtd">
<svg version="1.1" id="Layer_1" xmlns="http://www.w3.org/2000/svg" xmlns:xlink="http://www.w3.org/1999/xlink" x="0px" y="0px"
	 width="198.795px" height="201.205px" viewBox="0 0 198.795 201.205" enable-background="new 0 0 198.795 201.205"
	 xml:space="preserve">
<polygon fill="#FFFFFF" points="96.874,67.014 81.663,76.354 66.514,67.014 81.663,70.727 96.874,67.014 "/>
<path fill="#FFFFFF" stroke="#FFFFFF" stroke-width="0.7214" stroke-miterlimit="3.8637" d="M130.675,113.65h-14.508v0.756h14.508
	h2.17c0.598-12.637-1.92-19.195-5.883-23.59h-3.565C128.034,95.098,130.95,100.09,130.675,113.65L130.675,113.65z"/>
<path fill="#FFFFFF" stroke="#FFFFFF" stroke-width="0.7214" stroke-miterlimit="3.8637" d="M123.397,135.633
	c-4.238-2.697-8.85-9.006-9.449-22.209c-0.598-12.617,1.871-18.213,5.859-22.607h3.564c-4.713,4.355-7.703,8.877-7.23,22.797
	C116.591,128.571,119.358,130.749,123.397,135.633L123.397,135.633z"/>
<path fill="#FFFFFF" stroke="#FFFFFF" stroke-width="0.7214" stroke-miterlimit="3.8637" d="M53.36,97.65
	c-0.623-13.41-5.185-27.197-9.422-29.893c4.013,4.883,6.779,14.615,7.229,29.705v38.17h2.169L53.36,97.65L53.36,97.65z"/>
<path fill="#FFFFFF" stroke="#FFFFFF" stroke-width="0.7214" stroke-miterlimit="3.8637" d="M34.227,97.65
	c0.623-13.41,5.186-27.197,9.423-29.893c-4.013,4.883-6.78,14.615-7.229,29.705v38.17h-2.168L34.227,97.65L34.227,97.65z"/>
<path fill="#FFFFFF" stroke="#FFFFFF" stroke-width="0.7214" stroke-miterlimit="3.8637" d="M57.671,114.008
	c0.623,13.411,5.184,19.512,9.422,22.209c-4.014-4.885-6.779-6.932-7.229-22.02V91.4h-2.169L57.671,114.008L57.671,114.008z"/>
<path fill="#FFFFFF" stroke="#FFFFFF" stroke-width="0.7214" stroke-miterlimit="3.8637" d="M76.803,114.008
	c-0.623,13.411-5.186,19.512-9.424,22.209c4.014-4.885,6.781-6.932,7.231-22.02V91.4h2.168L76.803,114.008L76.803,114.008z"/>
<path fill="#FFFFFF" stroke="#FFFFFF" stroke-width="0.7214" stroke-miterlimit="3.8637" d="M80.997,105.738
	c0.623,13.411,5.185,27.198,9.422,29.895c-4.014-4.885-6.805-14.617-7.229-29.706V90.816h-2.169L80.997,105.738L80.997,105.738z"/>
<path fill="#FFFFFF" stroke="#FFFFFF" stroke-width="0.7214" stroke-miterlimit="3.8637" d="M108.145,105.738
	c-0.623,13.411-5.186,27.198-9.424,29.895c4.014-4.885,6.807-14.617,7.23-29.706V67.461h2.168L108.145,105.738L108.145,105.738z"/>
<path fill="#FFFFFF" stroke="#FFFFFF" stroke-miterlimit="10" d="M91.081,91.274h14.295V90.52h-14.51h-2.168
	c-0.598,12.637-0.331,35.35,7.006,45.698l1.305-0.551C92.372,131.385,90.167,113.106,91.081,91.274L91.081,91.274z"/>
<polygon fill="#FFFFFF" points="35.723,90.52 52.385,90.52 52.385,91.274 35.723,91.274 35.723,90.52 "/>
<path fill="#FFFFFF" stroke="#FFFFFF" stroke-width="0.5" stroke-miterlimit="3.8637" d="M146.596,90.131l0.473,0.533l0.467-0.533
	c4.414,2.809,8.703,16.803,9.324,30.19l-0.008,15.311h-2.117v-15.486c-0.422-15.073-3.734-24.694-7.666-29.481
	c-3.934,4.787-6.725,14.408-7.148,29.481v15.486h-0.332h-1.572h-0.264l0.008-69.01l1.828,0.037v35.738
	C141.446,95.576,144.046,91.754,146.596,90.131L146.596,90.131z"/>
</svg>
